<svg
    xmlns="http://www.w3.org/2000/svg"
    viewBox="0 0 74 74"
    id="vector">
    <path
        id="path"
        d="M 37 37 M 2 37 C 2 29.61 4.341 22.406 8.684 16.428 C 13.028 10.449 19.156 5.997 26.184 3.713 C 33.213 1.429 40.787 1.429 47.816 3.713 C 54.844 5.997 60.972 10.449 65.316 16.428 C 69.659 22.406 72 29.61 72 37 C 72 44.39 69.659 51.594 65.316 57.572 C 60.972 63.551 54.844 68.003 47.816 70.287 C 40.787 72.571 33.213 72.571 26.184 70.287 C 19.156 68.003 13.028 63.551 8.684 57.572 C 4.341 51.594 2 44.39 2 37"
        fill="#F16584"
        stroke="#FFFFFF"
        stroke-width="4"
        fill-rule="evenodd"/>
    <path
        id="path_1"
        d="M22.9452,27.2535C21.8527,27.2535 20.9635,28.1699 20.9635,29.2966L20.9635,45.5642C20.9635,46.6905 21.8527,47.607 22.9452,47.607L51.0546,47.607C52.1474,47.607 53.0363,46.6905 53.0363,45.5642L53.0363,29.2966C53.0363,28.1699 52.1474,27.2535 51.0546,27.2535L22.9452,27.2535ZM51.0546,49.6315L22.9452,49.6315C20.7698,49.6315 18.9999,47.8071 18.9999,45.5642L18.9999,29.2966C18.9999,27.0538 20.7698,25.229 22.9452,25.229L51.0546,25.229C53.23,25.229 54.9999,27.0538 54.9999,29.2966L54.9999,45.5642C54.9999,47.8071 53.23,49.6315 51.0546,49.6315Z"
        fill="#ffffff"
        fill-opacity="0.9"
        stroke="#00000000"
        stroke-width="1"
        fill-rule="evenodd"/>
    <path
        id="path_1"
        d="M37.4737,43C36.2939,43 35.1142,42.5501 34.2164,41.6501L20.8947,28.2999L22.2969,26.8947L35.6186,40.2449C36.6413,41.2695 38.3057,41.2695 39.3288,40.2449L52.6504,26.8947L54.0526,28.2999L40.731,41.6501C39.8328,42.5501 38.6534,43 37.4737,43"
        fill="#ffffff"
        fill-opacity="0.9"
        stroke="#00000000"
        stroke-width="1"
        fill-rule="evenodd"/>
</svg>
