<svg
    xmlns="http://www.w3.org/2000/svg"
    viewBox="0 0 74 74"
    id="vector">
    <path
        id="path"
        d="M 37 37 M 2 37 C 2 29.61 4.341 22.406 8.684 16.428 C 13.028 10.449 19.156 5.997 26.184 3.713 C 33.213 1.429 40.787 1.429 47.816 3.713 C 54.844 5.997 60.972 10.449 65.316 16.428 C 69.659 22.406 72 29.61 72 37 C 72 44.39 69.659 51.594 65.316 57.572 C 60.972 63.551 54.844 68.003 47.816 70.287 C 40.787 72.571 33.213 72.571 26.184 70.287 C 19.156 68.003 13.028 63.551 8.684 57.572 C 4.341 51.594 2 44.39 2 37"
        fill="#295396"
        stroke="#FFFFFF"
        stroke-width="4"
        fill-rule="evenodd"/>
    <path
        id="path_1"
        d="M 31.324 37.788 C 31.328 37.364 31.208 37.232 30.784 37.249 C 30.001 37.281 29.215 37.246 28.431 37.264 C 28.114 37.272 27.997 37.184 28 36.848 C 28.016 35.28 28.014 33.711 28.002 32.142 C 27.999 31.84 28.09 31.741 28.395 31.748 C 29.197 31.766 30 31.725 30.801 31.765 C 31.265 31.788 31.361 31.623 31.351 31.192 C 31.323 29.999 31.323 28.803 31.349 27.61 C 31.381 26.152 31.772 24.791 32.641 23.605 C 33.739 22.104 35.302 21.418 37.104 21.338 C 38.955 21.255 40.811 21.301 42.664 21.281 C 42.923 21.278 43 21.37 42.999 21.622 C 42.99 23.208 42.989 24.795 43 26.381 C 43.002 26.663 42.91 26.749 42.633 26.745 C 41.742 26.731 40.85 26.738 39.96 26.74 C 38.773 26.744 38.063 27.354 37.989 28.529 C 37.929 29.47 37.973 30.417 37.951 31.362 C 37.943 31.698 38.143 31.675 38.365 31.675 C 39.72 31.673 41.075 31.688 42.429 31.665 C 42.827 31.658 42.958 31.75 42.913 32.168 C 42.742 33.744 42.596 35.323 42.461 36.903 C 42.43 37.26 42.267 37.328 41.947 37.322 C 40.878 37.306 39.808 37.311 38.739 37.318 C 37.971 37.322 38.045 37.205 38.045 37.989 C 38.042 42.908 38.035 47.828 38.056 52.748 C 38.059 53.268 37.926 53.397 37.412 53.388 C 35.576 53.354 33.739 53.352 31.904 53.388 C 31.387 53.399 31.301 53.223 31.305 52.762 C 31.325 50.284 31.315 47.806 31.315 45.328 C 31.315 42.815 31.305 40.301 31.324 37.788 Z"
        fill="#ffffff"
        fill-opacity="0.9"
        stroke="#00000000"
        stroke-width="1"
        fill-rule="evenodd"/>
</svg>
