<svg
    xmlns="http://www.w3.org/2000/svg"
    viewBox="0 0 74 74"
    id="vector">
    <path
        id="path"
        d="M 37 37 M 2 37 C 2 29.61 4.341 22.406 8.684 16.428 C 13.028 10.449 19.156 5.997 26.184 3.713 C 33.213 1.429 40.787 1.429 47.816 3.713 C 54.844 5.997 60.972 10.449 65.316 16.428 C 69.659 22.406 72 29.61 72 37 C 72 44.39 69.659 51.594 65.316 57.572 C 60.972 63.551 54.844 68.003 47.816 70.287 C 40.787 72.571 33.213 72.571 26.184 70.287 C 19.156 68.003 13.028 63.551 8.684 57.572 C 4.341 51.594 2 44.39 2 37"
        fill="#ffffff"
        stroke="#FFFFFF"
        stroke-width="4"
        fill-rule="evenodd"/>
    <path
        id="path_2"
        d="M 67.231 30.96 L 64.75 30.96 L 64.75 30.833 L 37 30.833 L 37 43.167 L 54.429 43.167 C 51.88 50.345 45.052 55.5 37 55.5 C 26.78 55.5 18.5 47.22 18.5 37 C 18.5 26.78 26.78 18.5 37 18.5 C 41.716 18.5 46.01 20.276 49.273 23.185 L 57.993 14.465 C 52.489 9.335 45.125 6.167 37 6.167 C 19.969 6.167 6.167 19.969 6.167 37 C 6.167 54.031 19.969 67.833 37 67.833 C 54.031 67.833 67.833 54.031 67.833 37 C 67.833 34.934 67.622 32.918 67.231 30.96 Z"
        fill="#ffc107"
        stroke-width="1"/>
    <path
        id="path_3"
        d="M 9.72 22.649 L 19.855 30.081 C 22.595 23.293 29.232 18.5 37 18.5 C 41.716 18.5 46.01 20.276 49.273 23.185 L 57.993 14.465 C 52.489 9.335 45.125 6.167 37 6.167 C 25.154 6.167 14.886 12.851 9.72 22.649 Z"
        fill="#ff3d00"
        stroke-width="1"/>
    <path
        id="path_4"
        d="M 37 67.833 C 44.961 67.833 52.199 64.785 57.674 59.831 L 48.129 51.754 C 45.034 54.097 41.186 55.5 37 55.5 C 28.979 55.5 22.174 50.388 19.608 43.251 L 9.551 50.995 C 14.652 60.981 25.017 67.833 37 67.833 Z"
        fill="#4caf50"
        stroke-width="1"/>
    <path
        id="path_5"
        d="M 67.231 30.96 L 64.75 30.96 L 64.75 30.833 L 37 30.833 L 37 43.167 L 54.429 43.167 C 53.206 46.617 50.983 49.586 48.123 51.754 L 48.129 51.754 L 57.674 59.831 C 57 60.438 67.833 52.417 67.833 37 C 67.833 34.934 67.622 32.918 67.231 30.96 Z"
        fill="#1976d2"
        stroke-width="1"/>
</svg>
