<?xml version="1.0" encoding="UTF-8" standalone="no"?>
<svg
   xmlns:dc="http://purl.org/dc/elements/1.1/"
   xmlns:cc="http://creativecommons.org/ns#"
   xmlns:rdf="http://www.w3.org/1999/02/22-rdf-syntax-ns#"
   xmlns:svg="http://www.w3.org/2000/svg"
   xmlns="http://www.w3.org/2000/svg"
   viewBox="0 0 32 32"
   height="32"
   width="32"
   xml:space="preserve"
   id="svg2"
   version="1.1"><metadata
     id="metadata8"><rdf:RDF><cc:Work
         rdf:about=""><dc:format>image/svg+xml</dc:format><dc:type
           rdf:resource="http://purl.org/dc/dcmitype/StillImage" /></cc:Work></rdf:RDF></metadata><defs
     id="defs6"><clipPath
       id="clipPath20"
       clipPathUnits="userSpaceOnUse"><path
         id="path18"
         d="m 17.33301,8.064119 4.38226,3.430501 v 0 c 0.34637,0.27115 0.3815,0.7422 0.07845,1.05212 -0.02438,0.02493 -0.05059,0.04838 -0.07845,0.07019 l -4.40908,3.4515 v 0 C 16.9751,16.3276 16.47589,16.31188 16.166,16.03252 l -0.0043,-0.0038 v 0 c -0.29169,-0.26296 -0.28991,-0.6877 0.004,-0.94869 0.0089,-0.008 0.01812,-0.01569 0.0275,-0.02323 l 2.80996,-2.25537 H 7.835282 v 0 c -0.460238,0 -0.833334,-0.33382 -0.833334,-0.74561 v 0 0 c 0,-0.4118 0.373096,-0.74562 0.833334,-0.74562 H 19.00316 L 16.23083,9.161242 v 0 C 15.89382,8.899944 15.8573,8.443687 16.14929,8.142122 c 0.0041,-0.00423 0.0083,-0.00842 0.01245,-0.012561 l 0.0055,-0.00547 v 0 c 0.30535,-0.300935 0.82383,-0.32761 1.16572,-0.059973 z m -2.82806,9.207811 v 0 0 c -0.46042,0 -0.83367,0.33395 -0.83367,0.74591 v 1.49093 H 4.500659 v 0 c -0.460237,0 -0.833333,-0.33382 -0.833333,-0.74561 v -13.421055 0 c 0,-0.411791 0.373096,-0.745614 0.833333,-0.745614 h 9.170621 v 1.490933 0 c 0,0.411955 0.37325,0.745909 0.83367,0.745909 v 0 0 c 0.46042,0 0.83366,-0.333954 0.83366,-0.745909 V 4.596491 C 15.33333,3.850877 14.5,3.105263 13.67128,3.105263 H 3.667326 C 2.833663,3.105263 2,3.850877 2,4.596491 V 19.50877 C 2,20.25439 2.833663,21 3.667326,21 h 9.999344 c 0.83333,0 1.66666,-0.76102 1.66666,-1.49123 l 0.0035,-1.49093 v 0 c 9.7e-4,-0.41109 -0.3707,-0.74504 -0.83015,-0.74591 -5.8e-4,0 -0.0012,0 -0.0018,0 z" /></clipPath></defs><g
     transform="matrix(1.3333333,0,0,-1.3333333,0,32)"
     id="g10"><g
       id="g12" /><g
       id="g14"><g
         clip-path="url(#clipPath20)"
         id="g16"><path
           id="path22"
           style="fill:#424242;fill-opacity:1;fill-rule:nonzero;stroke:none"
           d="M -3,26 H 26.99989 V -1.894737 H -3 Z" /></g></g></g></svg>