<?xml version="1.0" encoding="UTF-8"?>
<svg xmlns="http://www.w3.org/2000/svg" xmlns:xlink="http://www.w3.org/1999/xlink" width="24pt" height="24pt" viewBox="0 0 24 24" version="1.1">
<g id="surface1">
<path style="fill:none;stroke-width:1.5;stroke-linecap:round;stroke-linejoin:miter;stroke:rgb(25.881958%,25.881958%,25.881958%);stroke-opacity:1;stroke-miterlimit:10;" d="M 8.765625 6.068292 L 10.722656 0.201105 C 10.773438 0.0487612 10.9375 -0.0371763 11.09375 0.013605 C 11.179688 0.044855 11.25 0.115167 11.277344 0.201105 L 13.875 7.990167 C 13.914063 8.107355 14.027344 8.189386 14.152344 8.189386 L 21.707031 8.189386 C 21.867188 8.189386 22 8.322199 22 8.482355 C 22 8.587824 21.945313 8.681574 21.855469 8.736261 L 15.617188 12.482355 C 15.496094 12.552667 15.445313 12.697199 15.488281 12.826105 L 18.039063 20.482355 C 18.089844 20.638605 18.007813 20.802667 17.855469 20.857355 C 17.757813 20.888605 17.65625 20.869074 17.578125 20.806574 L 11.183594 15.693292 C 11.078125 15.607355 10.921875 15.607355 10.816406 15.693292 L 6 19.544855 L 4.421875 20.806574 C 4.296875 20.908136 4.109375 20.888605 4.007813 20.759699 C 3.945313 20.681574 3.929688 20.580011 3.960938 20.482355 L 6.511719 12.826105 C 6.554688 12.697199 6.503906 12.552667 6.382813 12.482355 L 0.144531 8.736261 C 0.00390625 8.65423 -0.0429688 8.470636 0.0429688 8.333917 C 0.09375 8.244074 0.191406 8.189386 0.292969 8.189386 L 6.585938 8.189386 " transform="matrix(1,0,0,1,1,1.56452)"/>
</g>
</svg>
