<svg
    xmlns="http://www.w3.org/2000/svg"
    viewBox="0 0 74 74"
    id="vector">
    <path
        id="path"
        d="M 37 37 M 2 37 C 2 29.61 4.341 22.406 8.684 16.428 C 13.028 10.449 19.156 5.997 26.184 3.713 C 33.213 1.429 40.787 1.429 47.816 3.713 C 54.844 5.997 60.972 10.449 65.316 16.428 C 69.659 22.406 72 29.61 72 37 C 72 44.39 69.659 51.594 65.316 57.572 C 60.972 63.551 54.844 68.003 47.816 70.287 C 40.787 72.571 33.213 72.571 26.184 70.287 C 19.156 68.003 13.028 63.551 8.684 57.572 C 4.341 51.594 2 44.39 2 37"
        fill="#1da1f2"
        stroke="#FFFFFF"
        stroke-width="4"
        fill-rule="evenodd"/>
    <path
        id="path_1"
        d="M 31.261 51.102 C 43.91 51.102 50.827 40.619 50.827 31.535 C 50.827 31.235 50.827 30.936 50.813 30.651 C 52.154 29.681 53.323 28.469 54.25 27.085 C 53.023 27.627 51.697 27.998 50.3 28.169 C 51.726 27.314 52.81 25.973 53.323 24.361 C 51.997 25.146 50.528 25.716 48.959 26.03 C 47.704 24.689 45.921 23.862 43.939 23.862 C 40.145 23.862 37.065 26.943 37.065 30.736 C 37.065 31.278 37.122 31.806 37.25 32.305 C 31.532 32.02 26.469 29.282 23.075 25.117 C 22.49 26.13 22.148 27.314 22.148 28.569 C 22.148 30.95 23.36 33.061 25.214 34.287 C 24.087 34.259 23.032 33.945 22.105 33.432 L 22.105 33.517 C 22.105 36.854 24.472 39.621 27.624 40.263 C 27.053 40.42 26.44 40.505 25.813 40.505 C 25.371 40.505 24.943 40.462 24.515 40.377 C 25.385 43.115 27.924 45.097 30.933 45.154 C 28.579 46.994 25.613 48.092 22.39 48.092 C 21.834 48.092 21.292 48.064 20.75 47.992 C 23.759 49.961 27.381 51.102 31.261 51.102"
        fill="#ffffff"
        fill-opacity="0.9"
        stroke="#00000000"
        stroke-width="1"
        fill-rule="evenodd"/>
</svg>
