<?xml version="1.0" encoding="iso-8859-1"?>
<!-- Generator: Adobe Illustrator 19.0.0, SVG Export Plug-In . SVG Version: 6.00 Build 0)  -->
<svg version="1.1" id="Capa_1" xmlns="http://www.w3.org/2000/svg" xmlns:xlink="http://www.w3.org/1999/xlink" x="0px" y="0px"
	 viewBox="0 0 511.999 511.999" style="enable-background:new 0 0 511.999 511.999;" xml:space="preserve">
<path style="fill:#FF4C4C;" d="M501.773,165.691L259.926,10.087c-2.391-1.539-5.461-1.539-7.852,0L10.227,165.691
	c-5.378,3.46-2.927,11.798,3.468,11.798h484.612C504.701,177.489,507.151,169.151,501.773,165.691z"/>
<path style="fill:#F33939;" d="M261.404,32.94c-3.291-2.118-7.516-2.118-10.808,0L25.93,177.489h460.14L261.404,32.94z"/>
<path style="fill:#FFB125;" d="M262.705,54.186c-4.084-2.627-9.326-2.627-13.41,0L57.651,177.489v32.343h396.697v-32.343
	L262.705,54.186z"/>
<path style="fill:#927266;" d="M128.501,261.142c2.633,0,4.768-2.135,4.768-4.768v-19.817h4.79c2.633,0,4.768-2.135,4.768-4.768
	v-25.835H57.651v25.835c0,2.633,2.135,4.768,4.768,4.768h4.79v19.817c0,2.633,2.135,4.768,4.768,4.768h8.273v160.696h-8.273
	c-2.633,0-4.768,2.135-4.768,4.768v19.817h-4.79c-2.633,0-4.768,2.135-4.768,4.768v25.835h85.176V451.19
	c0-2.633-2.135-4.768-4.768-4.768h-4.79v-19.817c0-2.633-2.135-4.768-4.768-4.768h-8.273V261.142H128.501z"/>
<path style="fill:#82635A;" d="M100.239,477.025h42.588V451.19c0-2.633-2.135-4.768-4.768-4.768h-4.79v-19.817
	c0-2.633-2.135-4.768-4.768-4.768h-8.273V261.142h8.273c2.633,0,4.768-2.135,4.768-4.768v-19.817h4.79
	c2.633,0,4.768-2.135,4.768-4.768v-25.835h-42.588V477.025z"/>
<g>
	<path style="fill:#927266;" d="M284.262,261.142c2.633,0,4.768-2.135,4.768-4.768v-19.817h4.79c2.633,0,4.768-2.135,4.768-4.768
		v-25.835h-85.176v25.835c0,2.633,2.135,4.768,4.768,4.768h4.79v19.817c0,2.633,2.135,4.768,4.768,4.768h8.273v160.696h-8.273
		c-2.633,0-4.768,2.135-4.768,4.768v19.817h-4.79c-2.633,0-4.768,2.135-4.768,4.768v25.835h85.176V451.19
		c0-2.633-2.135-4.768-4.768-4.768h-4.79v-19.817c0-2.633-2.135-4.768-4.768-4.768h-8.273V261.142H284.262z"/>
	<path style="fill:#927266;" d="M440.022,261.142c2.633,0,4.768-2.135,4.768-4.768v-19.817h4.79c2.633,0,4.768-2.135,4.768-4.768
		v-25.835h-85.176v25.835c0,2.633,2.135,4.768,4.768,4.768h4.79v19.817c0,2.633,2.135,4.768,4.768,4.768h8.273v160.696h-8.273
		c-2.633,0-4.768,2.135-4.768,4.768v19.817h-4.79c-2.633,0-4.768,2.135-4.768,4.768v25.835h85.176V451.19
		c0-2.633-2.135-4.768-4.768-4.768h-4.79v-19.817c0-2.633-2.135-4.768-4.768-4.768h-8.273V261.142H440.022z"/>
</g>
<g>
	<path style="fill:#82635A;" d="M256,477.025h42.588V451.19c0-2.633-2.135-4.768-4.768-4.768h-4.79v-19.817
		c0-2.633-2.135-4.768-4.768-4.768h-8.273V261.142h8.273c2.633,0,4.768-2.135,4.768-4.768v-19.817h4.79
		c2.633,0,4.768-2.135,4.768-4.768v-25.835H256V477.025z"/>
	<path style="fill:#82635A;" d="M411.99,477.025h42.358V451.19c0-2.633-2.135-4.768-4.768-4.768h-4.79v-19.817
		c0-2.633-2.135-4.768-4.768-4.768h-8.273V261.142h8.273c2.633,0,4.768-2.135,4.768-4.768v-19.817h4.79
		c2.633,0,4.768-2.135,4.768-4.768v-25.835H411.99V477.025z"/>
</g>
<path style="fill:#FF901D;" d="M454.349,209.833V177.49L262.705,54.186c-2.042-1.314-4.373-1.971-6.705-1.971v157.617
	L454.349,209.833L454.349,209.833z"/>
<rect x="57.651" y="177.49" style="fill:#FF4C4C;" width="396.7" height="32.34"/>
<path style="fill:#F33939;" d="M408.77,177.277v8.55c0,6.359-5.155,11.515-11.515,11.515H57.651v12.491h396.697v-0.212v-12.278
	v-20.065L408.77,177.277L408.77,177.277z"/>
<path style="fill:#FF4C4C;" d="M487.386,503.061H24.614c-4.036,0-7.307-3.272-7.307-7.307v-15.299c0-4.036,3.272-7.307,7.307-7.307
	h462.773c4.036,0,7.307,3.272,7.307,7.307v15.299C494.694,499.789,491.422,503.061,487.386,503.061z"/>
<path style="fill:#F33939;" d="M487.386,473.146h-38.272v12.003c0,2.483-2.013,4.496-4.496,4.496H24.614
	c-4.036,0-7.307-3.272-7.307-7.307v13.415c0,4.036,3.272,7.307,7.307,7.307h462.773c4.036,0,7.307-3.272,7.307-7.307v-15.299
	C494.694,476.418,491.422,473.146,487.386,473.146z"/>
<path d="M505.709,159.575L336.462,50.682c-3.379-2.174-7.879-1.196-10.052,2.181c-2.173,3.378-1.197,7.878,2.181,10.052
	l166.773,107.301h-38.878L266.64,48.07l0,0c-6.463-4.158-14.816-4.157-21.28,0L55.514,170.216H16.636L255.991,16.204l33.899,21.81
	c3.379,2.173,7.878,1.197,10.052-2.181c2.173-3.378,1.197-7.878-2.181-10.052l-33.899-21.81c-4.776-3.073-10.947-3.073-15.723,0
	L6.291,159.575c-5.15,3.314-7.45,9.488-5.723,15.364c1.727,5.876,7.002,9.824,13.126,9.824h36.684v25.07v21.956
	c0,5.789,4.106,10.637,9.558,11.784v12.801c0,6.64,5.402,12.042,12.042,12.042h1v89.112c0,4.017,3.256,7.273,7.273,7.273
	s7.273-3.256,7.273-7.273v-96.385c0-4.017-3.256-7.273-7.273-7.273h-5.768v-10.04h51.513v10.038h-5.768
	c-4.017,0-7.273,3.256-7.273,7.273v160.696c0,4.017,3.256,7.273,7.273,7.273h5.768v10.915H74.483V429.11h5.768
	c4.017,0,7.273-3.256,7.273-7.273v-18.59c0-4.017-3.256-7.273-7.273-7.273s-7.273,3.256-7.273,7.273v11.317h-1
	c-6.64,0-12.042,5.401-12.042,12.041v12.801c-5.453,1.147-9.558,5.995-9.558,11.784v14.682H24.614
	c-8.04,0-14.581,6.541-14.581,14.581v15.299c0,8.04,6.541,14.581,14.581,14.581h462.772c8.04,0,14.581-6.541,14.581-14.581v-15.299
	c0-8.04-6.541-14.581-14.581-14.581h-25.764V451.19c0-5.789-4.106-10.637-9.558-11.784v-12.801c0-6.64-5.402-12.041-12.042-12.041
	h-1v-146.15h1c6.64,0,12.042-5.402,12.042-12.042v-12.801c5.453-1.147,9.558-5.995,9.558-11.784v-21.956v-25.07h36.684
	c6.124,0,11.399-3.948,13.126-9.824C513.159,169.063,510.859,162.888,505.709,159.575z M253.23,60.303
	c1.683-1.083,3.857-1.082,5.54,0l0,0l170.833,109.914H82.398L253.23,60.303z M206.139,217.106v14.683
	c0,5.789,4.106,10.637,9.558,11.784v12.801c0,6.64,5.402,12.042,12.042,12.042h1v146.15h-1c-6.64,0-12.042,5.401-12.042,12.041
	v12.801c-5.452,1.147-9.558,5.995-9.558,11.784v14.682H150.1v-14.682c0-5.789-4.106-10.637-9.558-11.784v-12.801
	c0-6.64-5.402-12.041-12.042-12.041h-1v-146.15h1c6.64,0,12.042-5.402,12.042-12.042v-12.801c5.452-1.147,9.558-5.995,9.558-11.784
	v-14.683H206.139z M361.9,217.106v14.683c0,5.789,4.106,10.637,9.558,11.784v12.801c0,6.64,5.402,12.042,12.042,12.042h1v146.15h-1
	c-6.64,0-12.042,5.401-12.042,12.041v12.801c-5.452,1.147-9.558,5.995-9.558,11.784v14.682h-56.038v-14.682
	c0-5.789-4.106-10.637-9.558-11.784v-12.801c0-6.64-5.402-12.041-12.042-12.041h-1v-146.15h1c6.64,0,12.042-5.402,12.042-12.042
	v-12.801c5.453-1.147,9.558-5.995,9.558-11.784v-14.683H361.9z M447.076,229.284h-2.285c-0.003,0-0.007,0.001-0.01,0.001
	c-0.003,0-0.007-0.001-0.01-0.001h-66.039h-0.02h-2.265v-12.178h70.63L447.076,229.284L447.076,229.284z M431.749,429.111h5.768
	v10.915h-51.513v-10.915h5.768c4.017,0,7.273-3.256,7.273-7.273V261.142c0-4.017-3.256-7.273-7.273-7.273h-5.768V243.83h51.513
	v10.038h-5.768c-4.017,0-7.273,3.256-7.273,7.273v160.696C424.476,425.854,427.732,429.111,431.749,429.111z M236.012,253.868
	h-5.768V243.83h51.513v10.038h-5.768c-4.017,0-7.273,3.256-7.273,7.273v160.696c0,4.017,3.256,7.273,7.273,7.273h5.768v10.915
	h-51.513V429.11h5.768c4.017,0,7.273-3.256,7.273-7.273V261.142C243.285,257.125,240.029,253.868,236.012,253.868z M220.685,454.213
	c0.71,0.231,1.466,0.36,2.253,0.36h66.059c0.811,0,1.589-0.139,2.318-0.384v11.684h-70.63V454.213z M291.315,229.284h-2.285
	c-0.005,0-0.011,0.001-0.016,0.001s-0.011-0.001-0.016-0.001H222.97h-0.032h-2.253v-12.178h70.63V229.284z M135.554,229.284h-2.285
	H67.21h-2.285v-12.178h70.63L135.554,229.284L135.554,229.284z M64.924,454.201c0.719,0.238,1.486,0.372,2.285,0.372h66.06
	c0.799,0,1.566-0.134,2.285-0.372v11.672h-70.63L64.924,454.201L64.924,454.201z M487.421,480.454l-0.02,15.333
	c0,0-0.004,0.001-0.015,0.001l-462.807-0.034l0.035-15.334L487.421,480.454z M376.446,465.873v-11.665
	c0.713,0.234,1.473,0.364,2.265,0.364h66.059c0.807,0,1.58-0.137,2.306-0.379v11.68H376.446z M447.076,202.559h-77.903h-70.585
	h-85.176h-70.585H64.924v-17.797h382.151L447.076,202.559L447.076,202.559z"/>
<path style="fill:#DD7219;" d="M253.045,155.51c-13.296-0.215-22.303-7.399-22.303-12.653c0-2.574,2.252-6.112,4.932-6.112
	c3.538,0,6.434,7.506,17.371,8.364V119.91c-9.65-3.431-20.373-7.292-20.373-21.017c0-13.511,10.186-18.872,20.373-19.945v-3.11
	c0-1.287,1.287-2.466,3.11-2.466c1.608,0,3.217,1.179,3.217,2.466v2.895c7.292,0.214,17.585,2.466,17.585,7.72
	c0,2.037-1.501,6.112-4.718,6.112c-2.573,0-5.361-3.431-12.867-3.967v21.767c9.329,3.431,19.516,8.149,19.516,22.733
	c0,13.189-7.935,20.481-19.516,22.089v3.646c0,1.287-1.608,2.466-3.217,2.466c-1.823,0-3.11-1.179-3.11-2.466V155.51z
	 M253.689,108.33V88.814c-6.005,0.75-10.294,3.431-10.294,9.007C243.395,103.933,248.006,106.185,253.689,108.33z M258.728,122.269
	v22.625c5.79-1.072,9.436-4.504,9.436-10.616C268.164,127.523,263.983,124.521,258.728,122.269z"/>
<g>
</g>
<g>
</g>
<g>
</g>
<g>
</g>
<g>
</g>
<g>
</g>
<g>
</g>
<g>
</g>
<g>
</g>
<g>
</g>
<g>
</g>
<g>
</g>
<g>
</g>
<g>
</g>
<g>
</g>
</svg>
